<svg version="1.1" id="Layer_1" xmlns="http://www.w3.org/2000/svg" xmlns:xlink="http://www.w3.org/1999/xlink" x="0px" y="0px"
	 width="100%" viewBox="0 0 5001 3334" enable-background="new 0 0 5001 3334" xml:space="preserve">
<path fill="#F7FDFF" opacity="1.000000" stroke="none" 
	d="
M2.000010,1448.000000 
	C2.000000,1398.610596 2.000000,1349.221191 2.835810,1298.986206 
	C8.778855,1296.956055 14.579210,1296.917358 18.843073,1294.338379 
	C26.721981,1289.572754 34.446793,1284.065674 40.945713,1277.575684 
	C237.873993,1080.913818 434.644653,884.094238 631.439453,687.298706 
	C633.324890,685.413208 635.303711,683.609741 637.068604,681.617004 
	C649.246399,667.867126 655.319153,652.479553 650.049805,633.917480 
	C647.222412,623.957825 641.213501,616.219299 634.048828,609.056519 
	C434.162964,409.224365 234.307541,209.361740 34.472157,9.479090 
	C32.147202,7.153587 30.150127,4.500286 28.000000,2.000000 
	C500.056061,2.000000 972.112122,2.000000 1444.830078,2.617450 
	C1442.507690,6.355268 1439.583008,9.535043 1436.530884,12.587469 
	C1231.972412,217.164566 1027.403320,421.730865 822.842407,626.305542 
	C819.842712,629.305481 816.937988,632.400269 814.145386,635.288940 
	C821.094910,645.209595 1482.719238,1306.171143 1487.908447,1309.144043 
	C1712.853638,1084.199829 1937.540161,859.514160 2162.834717,634.220459 
	C2160.874023,632.210754 2157.926514,629.123718 2154.909424,626.106445 
	C1950.111206,421.297821 1745.304688,216.497314 1540.528564,11.666547 
	C1537.496460,8.633605 1534.834717,5.230367 1532.000000,1.999976 
	C2689.236084,2.000000 3846.472412,2.000000 5003.854492,2.000000 
	C5003.854492,1113.142822 5003.854492,2224.285645 5003.854492,3336.000000 
	C3971.277344,3336.000000 2938.554443,3336.000000 1904.613525,3335.408691 
	C1883.416016,3314.733398 1863.480103,3294.606201 1843.450684,3274.572266 
	C1725.383423,3156.476318 1607.294922,3038.401855 1489.212402,2920.321289 
	C1478.078857,2909.188477 1478.073120,2909.191162 1466.618286,2920.644775 
	C1442.341187,2944.920166 1418.065308,2969.196777 1393.789185,2993.473145 
	C1283.014160,3104.248535 1172.228882,3215.013428 1061.521362,3325.856201 
	C1058.578613,3328.802490 1056.487915,3332.599609 1054.000000,3336.000000 
	C1017.277283,3336.000000 980.554504,3336.000000 943.161255,3335.378418 
	C945.247803,3331.873779 947.950134,3328.935791 950.770020,3326.115479 
	C1057.275024,3219.591309 1163.790894,3113.078613 1270.304810,3006.563721 
	C1308.951416,2967.916748 1347.632568,2929.304199 1386.224487,2890.602539 
	C1402.312012,2874.469238 1407.399780,2852.313965 1394.632812,2831.465088 
	C1391.897339,2826.998047 1388.149048,2823.046631 1384.414429,2819.310547 
	C1184.861084,2619.670410 985.259094,2420.079102 785.659546,2220.485352 
	C783.303406,2218.128906 781.111877,2215.550781 778.499817,2213.517578 
	C767.845459,2205.223389 755.939636,2201.662354 742.296143,2203.443359 
	C730.366699,2205.001221 721.478088,2211.179932 713.243042,2219.419922 
	C513.237061,2419.549805 313.155212,2619.604004 113.088142,2819.673096 
	C111.203026,2821.558105 109.207756,2823.351074 107.478142,2825.370605 
	C100.076813,2834.012451 96.011589,2843.963623 96.084641,2855.444336 
	C96.179596,2870.366943 103.006126,2882.033691 113.306725,2892.326904 
	C258.283112,3037.201904 403.195099,3182.141113 548.095825,3327.091309 
	C550.897583,3329.893799 553.372681,3333.022949 556.000000,3336.000000 
	C371.470367,3336.000000 186.940720,3336.000000 2.000000,3336.000000 
	C2.000000,3147.277344 2.000000,2958.554688 2.907498,2768.916016 
	C9.760601,2767.700928 15.839089,2768.080811 21.621716,2766.949219 
	C31.094496,2765.095703 38.156376,2758.906250 44.841702,2752.218262 
	C190.438034,2606.557861 336.076233,2460.939453 481.704437,2315.311035 
	C779.794556,2017.220703 1077.883423,1719.128906 1375.973511,1421.038452 
	C1391.023193,1405.988892 1396.336304,1388.450928 1387.621094,1368.494141 
	C1384.524414,1361.403320 1379.470459,1354.717407 1373.957764,1349.197144 
	C1174.505249,1149.468018 974.892700,949.898804 775.301758,750.307983 
	C773.652283,748.658447 772.164246,746.791504 770.315796,745.406433 
	C761.674866,738.931641 752.387573,734.247131 741.189941,733.930359 
	C726.303467,733.509338 714.059143,738.915466 703.658691,749.317322 
	C473.685730,979.322388 243.692719,1209.307373 13.702617,1439.295410 
	C11.581835,1441.416016 9.601730,1443.718018 7.264553,1445.567017 
	C5.790561,1446.733032 3.773470,1447.212524 2.000010,1448.000000 
M1895.846558,2380.846191 
	C1967.942505,2308.750977 2040.038574,2236.656006 2112.134521,2164.560791 
	C2113.548584,2163.146973 2115.008545,2161.775879 2116.368408,2160.311768 
	C2136.138916,2139.027588 2135.823975,2111.359131 2115.587891,2090.723389 
	C2114.187988,2089.295898 2112.765381,2087.890381 2111.351562,2086.476562 
	C1913.643799,1888.768066 1715.936401,1691.059204 1518.225830,1493.353516 
	C1515.634033,1490.761719 1513.204590,1487.957275 1510.356201,1485.681519 
	C1501.360718,1478.494507 1491.342163,1473.911255 1479.537476,1473.565308 
	C1464.543579,1473.125854 1452.907471,1479.333984 1442.480957,1489.770264 
	C1244.395874,1688.043823 1046.191162,1886.197876 848.011353,2084.376709 
	C844.947937,2087.439941 841.941345,2090.563232 838.808960,2093.554199 
	C823.522827,2108.150635 821.444946,2133.312500 832.272156,2150.276123 
	C835.622864,2155.525879 840.385010,2159.948242 844.842896,2164.407715 
	C1042.989258,2362.620117 1241.173462,2560.794678 1439.356201,2758.970703 
	C1441.712524,2761.326660 1444.039185,2763.718262 1446.494019,2765.968750 
	C1463.045898,2781.143311 1487.060181,2782.855225 1505.380859,2769.908691 
	C1509.697876,2766.858398 1513.556030,2763.082031 1517.313110,2759.326660 
	C1643.180908,2633.523193 1769.010864,2507.681885 1895.846558,2380.846191 
z"/>
<path fill="#DCF4FF" opacity="1.000000" stroke="none" 
	d="
M2.000010,1448.937256 
	C3.773470,1447.212524 5.790561,1446.733032 7.264553,1445.567017 
	C9.601730,1443.718018 11.581835,1441.416016 13.702617,1439.295410 
	C243.692719,1209.307373 473.685730,979.322388 703.658691,749.317322 
	C714.059143,738.915466 726.303467,733.509338 741.189941,733.930359 
	C752.387573,734.247131 761.674866,738.931641 770.315796,745.406433 
	C772.164246,746.791504 773.652283,748.658447 775.301758,750.307983 
	C974.892700,949.898804 1174.505249,1149.468018 1373.957764,1349.197144 
	C1379.470459,1354.717407 1384.524414,1361.403320 1387.621094,1368.494141 
	C1396.336304,1388.450928 1391.023193,1405.988892 1375.973511,1421.038452 
	C1077.883423,1719.128906 779.794556,2017.220703 481.704437,2315.311035 
	C336.076233,2460.939453 190.438034,2606.557861 44.841702,2752.218262 
	C38.156376,2758.906250 31.094496,2765.095703 21.621716,2766.949219 
	C15.839089,2768.080811 9.760601,2767.700928 2.907498,2768.000000 
	C2.000000,2328.625000 2.000000,1889.249756 2.000010,1448.937256 
z"/>
<path fill="#F8FDFF" opacity="1.000000" stroke="none" 
	d="
M1452.000000,2.000018 
	C1476.041748,2.000000 1500.083618,2.000000 1525.086182,2.692712 
	C1528.815186,6.663328 1531.360474,10.163772 1534.382935,13.187362 
	C1712.494751,191.370026 1890.645874,369.513336 2068.793213,547.660400 
	C2095.656738,574.523926 2122.530029,601.377441 2149.366699,628.267456 
	C2151.830566,630.736328 2154.060791,633.438110 2155.473877,635.005371 
	C1932.397583,858.082520 1710.261475,1080.219360 1488.057983,1302.423706 
	C1474.227417,1291.158569 826.212158,641.955811 821.329102,633.516541 
	C824.009583,631.439026 827.475281,629.303162 830.277039,626.502930 
	C1002.817993,454.060486 1175.304688,281.563629 1347.796265,109.071808 
	C1380.315186,76.552864 1412.868042,44.067677 1445.290894,11.453193 
	C1447.977905,8.750114 1449.784424,5.171737 1452.000000,2.000018 
z"/>
<path fill="#A0DDF0" opacity="1.000000" stroke="none" 
	d="
M556.937378,3336.000000 
	C553.372681,3333.022949 550.897583,3329.893799 548.095825,3327.091309 
	C403.195099,3182.141113 258.283112,3037.201904 113.306725,2892.326904 
	C103.006126,2882.033691 96.179596,2870.366943 96.084641,2855.444336 
	C96.011589,2843.963623 100.076813,2834.012451 107.478142,2825.370605 
	C109.207756,2823.351074 111.203026,2821.558105 113.088142,2819.673096 
	C313.155212,2619.604004 513.237061,2419.549805 713.243042,2219.419922 
	C721.478088,2211.179932 730.366699,2205.001221 742.296143,2203.443359 
	C755.939636,2201.662354 767.845459,2205.223389 778.499817,2213.517578 
	C781.111877,2215.550781 783.303406,2218.128906 785.659546,2220.485352 
	C985.259094,2420.079102 1184.861084,2619.670410 1384.414429,2819.310547 
	C1388.149048,2823.046631 1391.897339,2826.998047 1394.632812,2831.465088 
	C1407.399780,2852.313965 1402.312012,2874.469238 1386.224487,2890.602539 
	C1347.632568,2929.304199 1308.951416,2967.916748 1270.304810,3006.563721 
	C1163.790894,3113.078613 1057.275024,3219.591309 950.770020,3326.115479 
	C947.950134,3328.935791 945.247803,3331.873779 942.245361,3335.378418 
	C813.958191,3336.000000 685.916443,3336.000000 556.937378,3336.000000 
z"/>
<path fill="#A0DDF0" opacity="1.000000" stroke="none" 
	d="
M27.046677,2.000000 
	C30.150127,4.500286 32.147202,7.153587 34.472157,9.479090 
	C234.307541,209.361740 434.162964,409.224365 634.048828,609.056519 
	C641.213501,616.219299 647.222412,623.957825 650.049805,633.917480 
	C655.319153,652.479553 649.246399,667.867126 637.068604,681.617004 
	C635.303711,683.609741 633.324890,685.413208 631.439453,687.298706 
	C434.644653,884.094238 237.873993,1080.913818 40.945713,1277.575684 
	C34.446793,1284.065674 26.721981,1289.572754 18.843073,1294.338379 
	C14.579210,1296.917358 8.778855,1296.956055 2.835810,1298.070312 
	C2.000000,866.000000 2.000000,434.000000 2.000000,2.000000 
	C10.104271,2.000000 18.098812,2.000000 27.046677,2.000000 
z"/>
<path fill="#F8FDFF" opacity="1.000000" stroke="none" 
	d="
M1896.000000,3336.000000 
	C1617.953369,3336.000000 1339.906738,3336.000000 1061.197998,3335.390137 
	C1063.064697,3332.132812 1065.542236,3329.434570 1068.129761,3326.845947 
	C1128.415771,3266.541260 1188.713257,3206.247559 1249.008667,3145.952148 
	C1322.493896,3072.467041 1395.976318,2998.979248 1469.476562,2925.509277 
	C1472.209473,2922.777588 1475.115234,2920.218506 1478.204346,2917.332520 
	C1481.423218,2920.395996 1483.867310,2922.623291 1486.203247,2924.958740 
	C1620.698364,3059.437744 1755.187500,3193.923096 1889.645386,3328.439453 
	C1891.963989,3330.759277 1893.890503,3333.470947 1896.000000,3336.000000 
z"/>
<path fill="#AFDDF1" opacity="1.000000" stroke="none" 
	d="
M1451.250000,2.000018 
	C1449.784424,5.171737 1447.977905,8.750114 1445.290894,11.453193 
	C1412.868042,44.067677 1380.315186,76.552864 1347.796265,109.071808 
	C1175.304688,281.563629 1002.817993,454.060486 830.277039,626.502930 
	C827.475281,629.303162 824.009583,631.439026 821.329102,633.516541 
	C826.212158,641.955811 1474.227417,1291.158569 1488.057983,1302.423706 
	C1710.261475,1080.219360 1932.397583,858.082520 2155.473877,635.005371 
	C2154.060791,633.438110 2151.830566,630.736328 2149.366699,628.267456 
	C2122.530029,601.377441 2095.656738,574.523926 2068.793213,547.660400 
	C1890.645874,369.513336 1712.494751,191.370026 1534.382935,13.187362 
	C1531.360474,10.163772 1528.815186,6.663328 1526.023560,2.692712 
	C1527.500000,2.000000 1529.000000,2.000000 1531.250000,1.999976 
	C1534.834717,5.230367 1537.496460,8.633605 1540.528564,11.666547 
	C1745.304688,216.497314 1950.111206,421.297821 2154.909424,626.106445 
	C2157.926514,629.123718 2160.874023,632.210754 2162.834717,634.220459 
	C1937.540161,859.514160 1712.853638,1084.199829 1487.908447,1309.144043 
	C1482.719238,1306.171143 821.094910,645.209595 814.145386,635.288940 
	C816.937988,632.400269 819.842712,629.305481 822.842407,626.305542 
	C1027.403320,421.730865 1231.972412,217.164566 1436.530884,12.587469 
	C1439.583008,9.535043 1442.507690,6.355268 1445.745850,2.617450 
	C1447.500000,2.000000 1449.000000,2.000000 1451.250000,2.000018 
z"/>
<path fill="#ACE1F2" opacity="1.000000" stroke="none" 
	d="
M1896.799927,3336.000000 
	C1893.890503,3333.470947 1891.963989,3330.759277 1889.645386,3328.439453 
	C1755.187500,3193.923096 1620.698364,3059.437744 1486.203247,2924.958740 
	C1483.867310,2922.623291 1481.423218,2920.395996 1478.204346,2917.332520 
	C1475.115234,2920.218506 1472.209473,2922.777588 1469.476562,2925.509277 
	C1395.976318,2998.979248 1322.493896,3072.467041 1249.008667,3145.952148 
	C1188.713257,3206.247559 1128.415771,3266.541260 1068.129761,3326.845947 
	C1065.542236,3329.434570 1063.064697,3332.132812 1060.267944,3335.390137 
	C1058.500000,3336.000000 1057.000000,3336.000000 1054.750000,3336.000000 
	C1056.487915,3332.599609 1058.578613,3328.802490 1061.521362,3325.856201 
	C1172.228882,3215.013428 1283.014160,3104.248535 1393.789185,2993.473145 
	C1418.065308,2969.196777 1442.341187,2944.920166 1466.618286,2920.644775 
	C1478.073120,2909.191162 1478.078857,2909.188477 1489.212402,2920.321289 
	C1607.294922,3038.401855 1725.383423,3156.476318 1843.450684,3274.572266 
	C1863.480103,3294.606201 1883.416016,3314.733398 1903.697632,3335.408691 
	C1901.866577,3336.000000 1899.733276,3336.000000 1896.799927,3336.000000 
z"/>
<path fill="#48BBD8" opacity="1.000000" stroke="none" 
	d="
M1895.346436,2381.346191 
	C1769.010864,2507.681885 1643.180908,2633.523193 1517.313110,2759.326660 
	C1513.556030,2763.082031 1509.697876,2766.858398 1505.380859,2769.908691 
	C1487.060181,2782.855225 1463.045898,2781.143311 1446.494019,2765.968750 
	C1444.039185,2763.718262 1441.712524,2761.326660 1439.356201,2758.970703 
	C1241.173462,2560.794678 1042.989258,2362.620117 844.842896,2164.407715 
	C840.385010,2159.948242 835.622864,2155.525879 832.272156,2150.276123 
	C821.444946,2133.312500 823.522827,2108.150635 838.808960,2093.554199 
	C841.941345,2090.563232 844.947937,2087.439941 848.011353,2084.376709 
	C1046.191162,1886.197876 1244.395874,1688.043823 1442.480957,1489.770264 
	C1452.907471,1479.333984 1464.543579,1473.125854 1479.537476,1473.565308 
	C1491.342163,1473.911255 1501.360718,1478.494507 1510.356201,1485.681519 
	C1513.204590,1487.957275 1515.634033,1490.761719 1518.225830,1493.353516 
	C1715.936401,1691.059204 1913.643799,1888.768066 2111.351562,2086.476562 
	C2112.765381,2087.890381 2114.187988,2089.295898 2115.587891,2090.723389 
	C2135.823975,2111.359131 2136.138916,2139.027588 2116.368408,2160.311768 
	C2115.008545,2161.775879 2113.548584,2163.146973 2112.134521,2164.560791 
	C2040.038574,2236.656006 1967.942505,2308.750977 1895.346436,2381.346191 
z"/>
</svg>